<?xml version="1.0" standalone="no"?>
<!DOCTYPE svg PUBLIC "-//W3C//DTD SVG 20010904//EN"
 "http://www.w3.org/TR/2001/REC-SVG-20010904/DTD/svg10.dtd">
<svg version="1.0" xmlns="http://www.w3.org/2000/svg"
 width="839.000000pt" height="1191.000000pt" viewBox="0 0 839.000000 1191.000000"
 preserveAspectRatio="xMidYMid meet">

<g transform="translate(0.000000,1191.000000) scale(0.100000,-0.100000)"
fill="#000000" stroke="none">
<path d="M548 11898 c15 -15 118 -27 239 -27 141 -1 249 -53 286 -138 37 -85
75 -330 87 -558 6 -120 18 -260 26 -310 27 -175 34 -316 44 -950 8 -534 12
-655 27 -730 14 -77 17 -161 17 -600 1 -280 -1 -591 -3 -690 -3 -164 -2 -186
18 -250 29 -89 61 -138 101 -155 63 -26 72 10 90 360 6 118 17 267 25 331 39
314 45 971 10 1274 -17 154 -20 557 -5 790 l10 160 38 34 c69 62 164 90 192
56 6 -8 22 -75 35 -148 25 -147 35 -174 68 -186 31 -12 45 -4 68 40 19 39 20
39 78 39 37 0 75 -7 102 -20 53 -24 100 -25 139 -5 34 18 110 106 180 210 79
117 130 145 267 145 91 0 90 1 109 -173 31 -290 35 -323 52 -356 9 -19 29 -44
45 -55 56 -41 59 -27 102 479 14 165 30 318 36 340 15 58 90 164 146 206 100
76 144 91 373 124 275 41 299 49 460 155 140 91 233 120 389 120 100 0 139
-15 183 -71 l29 -36 9 -219 c5 -120 15 -298 21 -394 6 -96 9 -231 6 -300 -16
-345 -28 -796 -25 -909 3 -126 3 -128 43 -207 44 -87 74 -111 118 -95 14 6 31
19 37 30 16 30 28 350 40 1026 5 336 12 657 15 715 8 187 54 314 160 443 77
93 136 113 427 147 146 17 245 44 402 109 154 65 208 77 391 86 190 9 273 35
410 129 l60 41 -32 3 c-24 2 -45 -5 -75 -27 -24 -17 -79 -45 -123 -62 -76 -31
-90 -33 -260 -40 -101 -4 -202 -14 -230 -22 -27 -8 -111 -42 -185 -77 -89 -41
-155 -65 -195 -71 -33 -5 -80 -13 -105 -18 -25 -6 -75 -10 -111 -11 -90 0
-240 -34 -302 -67 -61 -34 -114 -87 -168 -169 -52 -80 -74 -143 -100 -284 -20
-110 -21 -133 -14 -565 5 -344 4 -462 -6 -500 -8 -34 -13 -158 -15 -380 -1
-181 -6 -346 -11 -365 -8 -30 -13 -35 -38 -35 -27 0 -31 5 -48 55 -11 30 -28
76 -38 103 -16 37 -17 52 -8 68 8 15 10 139 9 418 -3 349 -1 400 14 433 22 51
22 255 0 358 -14 68 -26 350 -24 588 1 58 -3 67 -40 119 -22 31 -48 61 -57 68
-41 27 -113 38 -211 31 -110 -8 -154 -18 -230 -52 -29 -13 -57 -24 -61 -24 -5
0 -42 -27 -83 -60 -40 -33 -91 -68 -113 -79 -53 -25 -244 -62 -371 -71 -133
-10 -155 -15 -249 -62 -100 -50 -188 -136 -234 -229 -35 -72 -45 -142 -61
-454 -5 -93 -14 -192 -19 -220 -5 -27 -10 -83 -10 -122 -1 -79 -12 -91 -35
-40 -26 57 -34 109 -41 277 -7 174 -20 249 -48 277 -25 26 -148 30 -222 8 -86
-24 -126 -56 -174 -136 -23 -39 -72 -107 -108 -150 l-66 -79 -52 0 c-42 0 -56
5 -75 25 -21 22 -31 25 -100 25 -86 0 -102 -10 -115 -67 -7 -35 -29 -44 -39
-17 -3 9 -6 37 -6 62 0 75 -35 226 -59 261 -18 25 -29 31 -60 31 -64 0 -122
-27 -194 -90 -16 -14 -33 -33 -39 -44 -17 -32 -33 -329 -33 -626 1 -240 3
-294 18 -344 14 -50 19 -138 28 -520 8 -332 8 -471 0 -503 -29 -114 -61 -372
-61 -492 0 -130 -16 -410 -23 -417 -2 -3 -16 0 -30 5 -18 7 -29 21 -36 48 -69
266 -67 252 -39 418 12 77 16 286 9 500 -2 55 0 155 4 222 8 129 -7 413 -26
473 -24 79 -31 169 -35 435 -5 375 -5 411 2 700 6 279 -3 399 -42 532 -22 78
-24 99 -24 323 0 226 -1 242 -24 307 -13 37 -27 102 -30 143 -11 122 -63 200
-171 251 -60 29 -61 29 -249 29 -148 0 -187 -3 -178 -12z"/>
</g>
</svg>
